<?xml version="1.0" encoding="UTF-8"?>
<svg id="Layer_2" data-name="Layer 2" xmlns="http://www.w3.org/2000/svg" xmlns:xlink="http://www.w3.org/1999/xlink" viewBox="0 0 595.28 595.28">
  <defs>
    <style>
      .cls-1 {
        fill: url(#linear-gradient-15);
      }

      .cls-2 {
        fill: url(#linear-gradient-13);
      }

      .cls-3 {
        fill: url(#linear-gradient-6);
      }

      .cls-3, .cls-4, .cls-5, .cls-6, .cls-7, .cls-8 {
        stroke: #0e79b9;
        stroke-miterlimit: 10;
        stroke-width: 1.5px;
      }

      .cls-9 {
        fill: url(#linear-gradient-10);
      }

      .cls-10 {
        fill: url(#linear-gradient-12);
      }

      .cls-11 {
        fill: #231f20;
        font-family: CascadiaCode-Regular, 'Cascadia Code';
        font-size: 28.26px;
        font-variation-settings: 'wght' 400;
      }

      .cls-4 {
        fill: url(#linear-gradient-2);
      }

      .cls-12 {
        fill: url(#linear-gradient-8);
      }

      .cls-5 {
        fill: url(#linear-gradient);
      }

      .cls-13 {
        fill: url(#linear-gradient-14);
      }

      .cls-14 {
        fill: url(#linear-gradient-17);
      }

      .cls-15 {
        fill: url(#linear-gradient-7);
      }

      .cls-16 {
        fill: url(#linear-gradient-9);
      }

      .cls-17 {
        fill: url(#linear-gradient-11);
      }

      .cls-6 {
        fill: url(#linear-gradient-3);
      }

      .cls-7 {
        fill: url(#linear-gradient-4);
      }

      .cls-18 {
        fill: url(#linear-gradient-16);
      }

      .cls-8 {
        fill: url(#linear-gradient-5);
      }

      .cls-19 {
        fill: url(#linear-gradient-18);
      }
    </style>
    <linearGradient id="linear-gradient" x1="127.34" y1="347.19" x2="127.34" y2="405.68" gradientUnits="userSpaceOnUse">
      <stop offset=".28" stop-color="#fff"/>
      <stop offset=".86" stop-color="#55c1ef"/>
      <stop offset=".97" stop-color="#0066ab"/>
    </linearGradient>
    <linearGradient id="linear-gradient-2" x1="268.66" y1="347.19" x2="268.66" xlink:href="#linear-gradient"/>
    <linearGradient id="linear-gradient-3" x1="334.47" y1="347.19" x2="334.47" y2="405.68" xlink:href="#linear-gradient"/>
    <linearGradient id="linear-gradient-4" x1="196.02" y1="347.19" x2="196.02" y2="405.68" xlink:href="#linear-gradient"/>
    <linearGradient id="linear-gradient-5" x1="401.74" y1="347.19" x2="401.74" xlink:href="#linear-gradient"/>
    <linearGradient id="linear-gradient-6" x1="465.06" y1="347.19" x2="465.06" y2="405.68" xlink:href="#linear-gradient"/>
    <linearGradient id="linear-gradient-7" x1="105.45" y1="425.55" x2="151.4" y2="425.55" gradientUnits="userSpaceOnUse">
      <stop offset=".05" stop-color="#e69726"/>
      <stop offset=".98" stop-color="#fdeb98"/>
    </linearGradient>
    <linearGradient id="linear-gradient-8" x1="441.79" y1="425.55" x2="486.04" y2="425.55" gradientUnits="userSpaceOnUse">
      <stop offset=".16" stop-color="#fdeb98"/>
      <stop offset="1" stop-color="#e69726"/>
    </linearGradient>
    <linearGradient id="linear-gradient-9" x1="172.16" y1="435.17" x2="172.16" y2="417.13" gradientUnits="userSpaceOnUse">
      <stop offset="0" stop-color="#e69726"/>
      <stop offset=".66" stop-color="#fce792"/>
      <stop offset=".77" stop-color="#fdeb98"/>
    </linearGradient>
    <linearGradient id="linear-gradient-10" x1="200.47" x2="200.47" y2="417.12" xlink:href="#linear-gradient-9"/>
    <linearGradient id="linear-gradient-11" x1="228.05" y1="435.35" x2="228.05" y2="416.94" xlink:href="#linear-gradient-9"/>
    <linearGradient id="linear-gradient-12" x1="256.24" x2="256.24" xlink:href="#linear-gradient-9"/>
    <linearGradient id="linear-gradient-13" x1="275.57" x2="275.57" xlink:href="#linear-gradient-9"/>
    <linearGradient id="linear-gradient-14" x1="295.77" x2="295.77" xlink:href="#linear-gradient-9"/>
    <linearGradient id="linear-gradient-15" x1="334.37" x2="334.37" xlink:href="#linear-gradient-9"/>
    <linearGradient id="linear-gradient-16" x1="360.75" y1="435.35" x2="360.75" y2="416.94" xlink:href="#linear-gradient-9"/>
    <linearGradient id="linear-gradient-17" x1="390.44" y1="435.16" x2="390.44" xlink:href="#linear-gradient-9"/>
    <linearGradient id="linear-gradient-18" x1="420.25" x2="420.25" xlink:href="#linear-gradient-9"/>
  </defs>
  <path class="cls-5" d="M159.79,362.28l1.91-15.06h-48.77s-12.77-1.15-15.32,15.06-4.47,28.72-4.47,28.72c0,0-2.81,14.04,14.43,14.68h46l2.68-16-42.38,1.28s-2.17,0-2.04-2.94,3.57-22.34,3.57-22.34c0,0,.89-3.83,4.47-3.19l39.91-.21Z"/>
  <polygon class="cls-4" points="252.51 405.68 270.77 405.68 273.83 383.55 309.19 347.19 287.74 347.19 266.43 368.62 250.85 347.19 228.13 347.19 255.06 383.94 252.51 405.68"/>
  <path class="cls-6" d="M357.06,347.19h-47.36l-2.55,3.29-7.15,55.19h18.38l2.17-18.55,30.77-.13s13.91-1.28,15.96-13.4l1.66-15.96s-1.4-9.52-11.87-10.44ZM350.55,368.74s-.89,3.06-4.21,3.96l-19.15.13-4.72,4.34-.26,1.02-1.66,7.66,3.32-23.74h23.36s2.94-.38,3.32,3.32v3.32Z"/>
  <path class="cls-7" d="M215.11,385.47c18.26-2.94,15.06-30.38,15.06-30.38-1.79-7.4-10.98-7.89-10.98-7.89h-50.68l-7.91,58.49h17.62l3.09-18.04,13.89.13,14.04,17.91h22.21l-16.34-20.21ZM187.66,373.34l-4.72,4.34-.26,1.02-1.66,7.66,3.32-23.74h23.36s2.94-.38,3.32,3.32v3.32s-.89,3.06-4.21,3.96l-19.15.13Z"/>
  <polygon class="cls-8" points="385.79 405.68 404.04 405.68 409.79 362.09 431.49 362.09 433.66 347.19 372.38 347.19 369.83 362.09 391.15 362.09 385.79 405.68"/>
  <path class="cls-3" d="M488.81,347.19h-40.72c-12.38,1.56-14.43,13-14.43,13l-3.83,34.72c1.4,9.45,11.23,10.77,11.23,10.77h41.36c14.43-1.23,15.7-13.57,15.7-13.57l2.17-34.72c-.51-9.83-11.49-10.19-11.49-10.19ZM481.44,384.2s-.63,6.11-7.78,6.72h-20.48s-4.87-.65-5.56-5.33l1.9-17.2s1.01-5.67,7.14-6.44h20.17s5.44.18,5.69,5.05l-1.07,17.2Z"/>
  <text class="cls-11" transform="translate(156.36 436.15) scale(1.64 1)"><tspan x="0" y="0"> </tspan></text>
  <polygon class="cls-15" points="105.45 424.87 151.4 422.15 151.4 428.96 105.45 424.87"/>
  <polygon class="cls-12" points="441.79 422.15 441.79 428.96 486.04 425.55 441.79 422.15"/>
  <g>
    <path class="cls-16" d="M162.72,435.17v-18.04h3.85v18.04h-3.85ZM164.71,428.17v-2.41h8.78c1.26,0,2.27-.29,3.03-.86s1.14-1.32,1.14-2.25-.38-1.7-1.14-2.27c-.76-.57-1.77-.86-3.03-.86h-8.78v-2.41h8.64c1.66,0,3.11.23,4.34.69,1.23.46,2.19,1.1,2.88,1.93.69.83,1.03,1.8,1.03,2.92s-.34,2.08-1.03,2.9c-.69.83-1.65,1.47-2.88,1.92-1.23.46-2.68.68-4.34.68h-8.64Z"/>
    <path class="cls-9" d="M190.47,435.17v-18.05h3.85v18.05h-3.85ZM192.15,427.54v-2.41h9.36c1.12,0,2.02-.26,2.7-.77.68-.51,1.02-1.19,1.02-2.03s-.34-1.52-1.02-2.04c-.68-.51-1.58-.77-2.7-.77h-9.36v-2.41h9.21c1.6,0,2.99.22,4.19.65s2.12,1.04,2.78,1.82.99,1.69.99,2.74-.33,1.95-1,2.74c-.67.78-1.59,1.39-2.78,1.82-1.19.43-2.58.65-4.18.65h-9.21ZM205.91,435.17l-6.29-8.19,3.83-.57,7.02,8.76h-4.57Z"/>
    <path class="cls-17" d="M228.05,435.35c-1.94,0-3.63-.28-5.08-.83s-2.57-1.33-3.37-2.33c-.8-1-1.2-2.17-1.2-3.5v-5.11c0-1.34.4-2.51,1.2-3.5.8-1,1.92-1.77,3.37-2.32s3.14-.83,5.08-.83,3.63.28,5.08.83c1.45.55,2.57,1.32,3.37,2.32.8,1,1.2,2.16,1.2,3.5v5.11c0,1.33-.4,2.5-1.2,3.5-.8,1-1.92,1.78-3.37,2.33-1.45.55-3.14.83-5.08.83ZM228.05,432.86c1.72,0,3.1-.37,4.14-1.12s1.56-1.73,1.56-2.95v-5.29c0-1.23-.52-2.22-1.56-2.96s-2.42-1.11-4.14-1.11-3.09.37-4.13,1.11-1.57,1.73-1.57,2.96v5.29c0,1.22.52,2.21,1.57,2.95s2.42,1.12,4.13,1.12Z"/>
    <path class="cls-10" d="M247.6,435.17v-18.04h3.85v18.04h-3.85ZM249.49,419.54v-2.41h15.38v2.41h-15.38ZM249.49,427.58v-2.41h13.31v2.41h-13.31Z"/>
    <path class="cls-2" d="M277.5,417.13v18.04h-3.85v-18.04h3.85Z"/>
    <path class="cls-13" d="M286.09,419.54v-2.41h19.36v2.41h-19.36ZM293.84,435.17v-16.56h3.85v16.56h-3.85Z"/>
    <path class="cls-1" d="M342.52,417.13v2.18l-11.95,13.45h12.33v2.41h-17.06v-2.18l12.04-13.45h-11.7v-2.41h16.34Z"/>
    <path class="cls-18" d="M360.75,435.35c-1.94,0-3.63-.28-5.08-.83s-2.57-1.33-3.37-2.33-1.2-2.17-1.2-3.5v-5.11c0-1.34.4-2.51,1.2-3.5.8-1,1.92-1.77,3.37-2.32s3.14-.83,5.08-.83,3.63.28,5.08.83,2.57,1.32,3.37,2.32c.8,1,1.2,2.16,1.2,3.5v5.11c0,1.33-.4,2.5-1.2,3.5s-1.92,1.78-3.37,2.33-3.14.83-5.08.83ZM360.75,432.86c1.72,0,3.1-.37,4.14-1.12s1.56-1.73,1.56-2.95v-5.29c0-1.23-.52-2.22-1.56-2.96s-2.42-1.11-4.14-1.11-3.09.37-4.13,1.11c-1.04.74-1.57,1.73-1.57,2.96v5.29c0,1.22.52,2.21,1.57,2.95,1.04.74,2.42,1.12,4.13,1.12Z"/>
    <path class="cls-14" d="M380.31,435.16v-18.03h3.49l13.42,13.94-.45.32v-14.27h3.81v18.03h-3.53l-13.38-13.73.45-.32v14.06h-3.81Z"/>
    <path class="cls-19" d="M411.43,435.17v-18.04h3.85v18.04h-3.85ZM413.3,419.54v-2.41h15.76v2.41h-15.76ZM413.3,427.41v-2.41h13.68v2.41h-13.68ZM413.3,435.17v-2.41h15.76v2.41h-15.76Z"/>
  </g>
</svg>